<?xml version="1.0" standalone="yes"?>
<svg xmlns="http://www.w3.org/2000/svg" width="282" height="67">
<path style="fill:#010101; stroke:none;" d="M0 0L0 67L282 67L282 0L0 0z"/>
<path style="fill:#ffffff; stroke:none;" d="M101 45L88 50C88 42.5273 84.9009 27.3547 92 23C94.0451 27.4986 96.0818 28.839 101 29C100.954 12.8633 80.1117 11.8811 80.0008 28C79.9553 34.6079 77.4498 48.3167 81.6034 53.7755C89.3504 63.9567 100.966 54.711 101 45M215 16C210.803 31.2717 228.01 34.3043 235.566 43.2099C238.945 47.1912 238 53.1441 238 58L245 58C245 53.4991 243.881 47.1533 246.742 43.3287C253.789 33.9112 271.558 31.5715 267 16L265 16L242 30L217 16L215 16M38 17L38 26L45 24C46.3104 31.0585 46.5927 38.8424 45.8264 46C45.5188 48.873 43.1746 53.7701 45.0671 56.3966C47.1676 59.3117 54.1744 58.1795 55.2122 54.7716C56.0184 52.1241 54.3096 48.6927 54.0934 46C53.5108 38.7457 54 31.277 54 24L62 26L62 17L38 17M64 17L65 57L77 57L77 17L64 17M105 17C106.852 30.7549 107.837 43.2473 105 57L117 57L115 45C117.42 47.3941 118.557 50.1219 120.352 52.9807C122.496 56.396 131.986 60.7511 130.627 53.1258C129.523 46.9304 122.202 42.3848 122.272 35.4244C122.337 28.9137 128.792 23.998 129 17C121.503 17.2434 118.021 22.1324 116 29L115 29L117 17L105 17M134 17L134 58L155 57L155 48L146 51L144 40C149.017 39.9405 151.578 39.4107 152 34C145.048 33.618 144.023 30.4334 144 24L155 26L155 17L134 17M166 24L165 57L177 58L176 25C180.077 25.8483 186.699 22.2372 181.397 18.0278C178.453 15.6913 162.666 15.6444 159.743 18.0278C154.273 22.4876 161.341 26.4534 166 24M186 17L186 57C196.034 58.2681 207.953 61.2596 208 48L197 51L198 17L186 17z"/>
</svg>
