<?xml version="1.0" encoding="UTF-8" standalone="no" ?>
<!DOCTYPE svg PUBLIC "-//W3C//DTD SVG 1.1//EN" "http://www.w3.org/Graphics/SVG/1.1/DTD/svg11.dtd">
<svg xmlns="http://www.w3.org/2000/svg" xmlns:xlink="http://www.w3.org/1999/xlink" version="1.1" width="1080" height="1080" viewBox="0 0 1080 1080" xml:space="preserve">
<desc>Created with Fabric.js 5.2.4</desc>
<defs>
</defs>
<g transform="matrix(1 0 0 1 540 540)" id="6daa2f94-25b8-42b2-bf0b-df374f42cdec"  >
<rect style="stroke: none; stroke-width: 1; stroke-dasharray: none; stroke-linecap: butt; stroke-dashoffset: 0; stroke-linejoin: miter; stroke-miterlimit: 4; fill: rgb(255,255,255); fill-rule: nonzero; opacity: 1; visibility: hidden;" vector-effect="non-scaling-stroke"  x="-540" y="-540" rx="0" ry="0" width="1080" height="1080" />
</g>
<g transform="matrix(1 0 0 1 540 540)" id="7124c235-f9d1-46ba-acfd-5336153a98b9"  >
</g>
<g transform="matrix(1 0 0 1 540 540)"  >
<g style="" vector-effect="non-scaling-stroke"   >
		<g transform="matrix(0.13 0 0 -0.13 -107.33 -0.16)"  >
<path style="stroke: none; stroke-width: 1; stroke-dasharray: none; stroke-linecap: butt; stroke-dashoffset: 0; stroke-linejoin: miter; stroke-miterlimit: 4; fill: rgb(255,255,255); fill-rule: nonzero; opacity: 1;" vector-effect="non-scaling-stroke"  transform=" translate(-685, -270.66)" d="M 626 530 C 610 525 587 511 574 499 C 550 477 550 474 550 272 L 550 68 L 578 40 C 617 2 684 -9 745 15 C 801 36 820 62 820 117 C 820 159 819 160 787 160 C 750 160 730 145 730 118 C 730 93 697 78 666 90 L 640 100 L 640 270 L 640 440 L 666 452 C 696 466 723 454 729 424 C 735 392 751 380 786 380 C 819 380 820 381 820 424 C 820 478 793 516 742 530 C 699 542 666 542 626 530 z" stroke-linecap="round" />
</g>
		<g transform="matrix(0.13 0 0 -0.13 152.01 -0.07)"  >
<path style="stroke: none; stroke-width: 1; stroke-dasharray: none; stroke-linecap: butt; stroke-dashoffset: 0; stroke-linejoin: miter; stroke-miterlimit: 4; fill: rgb(255,255,255); fill-rule: nonzero; opacity: 1;" vector-effect="non-scaling-stroke"  transform=" translate(-2630.09, -269.99)" d="M 2287 533 C 2276 523 2279 465 2291 433 C 2311 378 2404 298 2520 235 C 2587 198 2605 159 2596 63 L 2591 0 L 2634 0 L 2677 0 L 2672 78 C 2667 180 2677 203 2742 236 C 2771 251 2820 282 2850 305 C 2951 384 2980 426 2980 495 C 2980 545 2953 552 2937 507 C 2936 502 2904 492 2866 484 C 2785 467 2689 419 2654 378 L 2630 348 L 2606 378 C 2573 416 2476 467 2409 480 C 2336 495 2310 507 2310 525 C 2310 541 2298 545 2287 533 z" stroke-linecap="round" />
</g>
		<g transform="matrix(0.13 0 0 -0.13 -178 0.5)"  >
<path style="stroke: none; stroke-width: 1; stroke-dasharray: none; stroke-linecap: butt; stroke-dashoffset: 0; stroke-linejoin: miter; stroke-miterlimit: 4; fill: rgb(255,255,255); fill-rule: nonzero; opacity: 1;" vector-effect="non-scaling-stroke"  transform=" translate(-155, -265.76)" d="M 7 523 C 3 520 0 495 0 468 C 0 423 1 420 27 420 C 41 420 61 427 71 436 C 105 467 110 445 110 266 C 110 128 107 87 94 61 C 68 9 79 -1 157 2 C 219 5 225 7 228 28 C 230 41 224 62 216 75 C 203 95 200 130 200 259 C 200 347 203 425 206 434 C 214 454 234 455 250 435 C 257 427 273 420 286 420 C 308 420 310 424 310 475 L 310 530 L 162 530 C 80 530 10 527 7 523 z" stroke-linecap="round" />
</g>
		<g transform="matrix(0.13 0 0 -0.13 -141.98 0.49)"  >
<path style="stroke: none; stroke-width: 1; stroke-dasharray: none; stroke-linecap: butt; stroke-dashoffset: 0; stroke-linejoin: miter; stroke-miterlimit: 4; fill: rgb(255,255,255); fill-rule: nonzero; opacity: 1;" vector-effect="non-scaling-stroke"  transform=" translate(-425.14, -265.81)" d="M 350 503 C 350 487 357 466 365 456 C 387 426 387 109 364 75 C 356 62 350 41 352 28 C 355 7 361 5 423 2 C 501 -1 515 13 487 62 C 464 103 462 434 485 464 C 493 475 500 494 500 507 C 500 529 497 530 425 530 L 350 530 L 350 503 z" stroke-linecap="round" />
</g>
		<g transform="matrix(0.13 0 0 -0.13 -59.81 0.52)"  >
<path style="stroke: none; stroke-width: 1; stroke-dasharray: none; stroke-linecap: butt; stroke-dashoffset: 0; stroke-linejoin: miter; stroke-miterlimit: 4; fill: rgb(255,255,255); fill-rule: nonzero; opacity: 1;" vector-effect="non-scaling-stroke"  transform=" translate(-1041.39, -265.55)" d="M 878 495 C 880 476 886 457 891 454 C 903 447 903 104 891 82 C 886 73 880 52 879 35 L 875 5 L 945 5 C 1010 5 1015 7 1018 27 C 1020 40 1014 60 1006 72 C 988 97 985 157 1000 180 C 1013 200 1020 189 1060 97 C 1096 11 1112 -3 1168 2 C 1202 5 1205 8 1208 37 C 1211 63 1206 71 1183 83 C 1162 94 1146 122 1114 196 L 1072 294 L 1105 360 C 1123 396 1147 434 1159 444 C 1173 456 1180 475 1180 497 C 1180 531 1180 531 1138 528 C 1096 525 1095 524 1045 437 L 995 348 L 992 394 C 990 424 994 448 1004 462 C 1013 474 1020 495 1020 507 C 1020 529 1016 530 947 530 L 874 530 L 878 495 z" stroke-linecap="round" />
</g>
		<g transform="matrix(0.13 0 0 -0.13 -14.05 0.53)"  >
<path style="stroke: none; stroke-width: 1; stroke-dasharray: none; stroke-linecap: butt; stroke-dashoffset: 0; stroke-linejoin: miter; stroke-miterlimit: 4; fill: rgb(255,255,255); fill-rule: nonzero; opacity: 1;" vector-effect="non-scaling-stroke"  transform=" translate(-1384.64, -265.5)" d="M 1250 496 C 1250 477 1255 458 1260 455 C 1266 451 1270 377 1270 265 C 1270 153 1266 79 1260 75 C 1255 72 1250 53 1250 34 L 1250 0 L 1373 0 C 1440 0 1501 4 1508 9 C 1517 14 1520 34 1518 66 C 1516 107 1511 116 1495 118 C 1483 120 1463 111 1450 100 C 1436 88 1415 80 1400 82 C 1376 85 1375 88 1372 158 L 1369 230 L 1413 230 C 1463 230 1483 246 1478 282 C 1475 302 1469 305 1423 308 L 1370 311 L 1370 381 L 1370 450 L 1404 450 C 1422 450 1443 443 1450 435 C 1457 427 1476 420 1492 420 C 1521 420 1521 420 1518 473 L 1515 525 L 1383 528 L 1250 531 L 1250 496 z" stroke-linecap="round" />
</g>
		<g transform="matrix(0.13 0 0 -0.13 30.67 0.67)"  >
<path style="stroke: none; stroke-width: 1; stroke-dasharray: none; stroke-linecap: butt; stroke-dashoffset: 0; stroke-linejoin: miter; stroke-miterlimit: 4; fill: rgb(255,255,255); fill-rule: nonzero; opacity: 1;" vector-effect="non-scaling-stroke"  transform=" translate(-1720, -264.5)" d="M 1564 506 C 1561 493 1560 469 1562 454 C 1564 431 1571 424 1591 422 C 1605 420 1622 426 1630 434 C 1637 443 1649 450 1656 450 C 1667 450 1670 416 1670 267 C 1670 149 1666 80 1659 73 C 1653 67 1650 50 1652 34 C 1655 6 1656 5 1723 2 L 1790 -1 L 1790 34 C 1790 53 1786 72 1780 75 C 1766 84 1767 437 1781 445 C 1786 449 1800 444 1810 435 C 1838 409 1874 419 1878 454 C 1880 469 1879 493 1876 506 C 1870 530 1869 530 1720 530 C 1571 530 1570 530 1564 506 z" stroke-linecap="round" />
</g>
		<g transform="matrix(0.13 0 0 -0.13 76 0.51)"  >
<path style="stroke: none; stroke-width: 1; stroke-dasharray: none; stroke-linecap: butt; stroke-dashoffset: 0; stroke-linejoin: miter; stroke-miterlimit: 4; fill: rgb(255,255,255); fill-rule: nonzero; opacity: 1;" vector-effect="non-scaling-stroke"  transform=" translate(-2060, -265.7)" d="M 1920 501 C 1920 484 1925 468 1930 465 C 1944 456 1943 87 1929 73 C 1923 67 1920 50 1922 34 L 1925 5 L 2049 2 C 2131 0 2177 3 2186 11 C 2194 18 2200 42 2200 71 C 2200 117 2198 120 2175 120 C 2161 120 2136 111 2121 99 C 2105 88 2082 80 2069 82 L 2045 85 L 2042 260 C 2041 357 2044 444 2049 455 C 2054 466 2060 487 2063 503 L 2067 530 L 1994 530 L 1920 530 L 1920 501 z" stroke-linecap="round" />
</g>
</g>
</g>
</svg>