<svg width="16" height="16" viewBox="0 0 16 16" fill="none" xmlns="http://www.w3.org/2000/svg">
<path d="M8.8342 0.5H7.16754V8.83333H8.8342V0.5ZM12.8592 2.30833L11.6759 3.49167C13.0425 4.59167 13.8342 6.25 13.8342 8C13.8342 9.5471 13.2196 11.0308 12.1257 12.1248C11.0317 13.2188 9.54797 13.8333 8.00087 13.8333C4.7842 13.8333 2.16754 11.2333 2.16754 8C2.16754 6.25833 2.9592 4.59167 4.31754 3.48333L3.14254 2.30833C-0.0157956 4.99167 -0.399129 9.725 2.2842 12.8833C4.96754 16.0333 9.70087 16.4167 12.8592 13.7333C14.5425 12.3083 15.5009 10.2083 15.5009 8C15.5009 5.80833 14.5342 3.725 12.8592 2.30833Z" fill="#858585"/>
</svg>
