<svg width="25" height="31" viewBox="0 0 25 31" fill="none" xmlns="http://www.w3.org/2000/svg">
<path d="M15.5837 0.0834961H3.25033C2.43257 0.0834961 1.64832 0.408346 1.07008 0.986583C0.491842 1.56482 0.166992 2.34908 0.166992 3.16683V27.8335C0.166992 28.6512 0.491842 29.4355 1.07008 30.0137C1.64832 30.592 2.43257 30.9168 3.25033 30.9168H21.7503C22.5681 30.9168 23.3523 30.592 23.9306 30.0137C24.5088 29.4355 24.8337 28.6512 24.8337 27.8335V9.3335L15.5837 0.0834961ZM14.8128 21.6668V26.2918H10.1878V21.6668H6.33366L12.5003 15.5002L18.667 21.6668H14.8128ZM14.042 10.8752V2.396L22.5212 10.8752H14.042Z" fill="#F4DA47"/>
</svg>
